---
title: 萧福德.1994-无通伤阮的心【滚石】【WAV+CUE】
date: 2023-07-31 09:29:37
categories: WAV车载音乐、镜像
tags: 华语中文
---
# 萧福德.1994-无通伤阮的心【滚石】【WAV+CUE】

REM GENRE POP
REM DATE 1994
REM DISCID 6E0AFD0A
REM COMMENT "ExactAudioCopy v0.99pb5"
PERFORMER "萧福德"
TITLE "无通伤阮的心"
FILE "萧福德.-.[无通伤阮的心](1994)[WAV].wav" WAVE
TRACK 01 AUDIO
TITLE "无通伤阮的心"
PERFORMER "萧福德"
INDEX 01 00:00:00
TRACK 02 AUDIO
TITLE "不敢哭出声"
PERFORMER "萧福德"
INDEX 00 04:51:25
INDEX 01 04:54:37
TRACK 03 AUDIO
TITLE "彼一瞑 (哦！HONEY)"
PERFORMER "萧福德"
INDEX 00 10:01:00
INDEX 01 10:04:00
TRACK 04 AUDIO
TITLE "阿清仔"
PERFORMER "萧福德"
INDEX 00 15:05:37
INDEX 01 15:08:00
TRACK 05 AUDIO
TITLE "阿华A-O"
PERFORMER "萧福德"
INDEX 00 19:25:37
INDEX 01 19:28:12
TRACK 06 AUDIO
TITLE "一蕊花"
PERFORMER "萧福德"
INDEX 00 23:26:00
INDEX 01 23:28:50
TRACK 07 AUDIO
TITLE "你是按怎块哭"
PERFORMER "萧福德"
INDEX 00 28:08:25
INDEX 01 28:11:62
TRACK 08 AUDIO
TITLE "我无爱"
PERFORMER "萧福德"
INDEX 00 32:19:50
INDEX 01 32:22:50
TRACK 09 AUDIO
TITLE "不敢哭出声 (KALA版)"
PERFORMER "萧福德"
INDEX 00 36:56:50
INDEX 01 36:59:50
TRACK 10 AUDIO
TITLE "选择"
PERFORMER "萧福德"
INDEX 00 42:05:25
INDEX 01 42:08:00
萧福德.1994 - 无通伤阮的心【滚石】【WAV+CUE】.rar: https://url27.ctfile.com/f/9388027-900183825-d1ac55?p=559675
(访问密码: 559675)
0.台語(闽南语)經典: https://url27.ctfile.com/d/9388027-29195657-7462f6?p=559675
(访问密码: 559675)
原文：[链接](https://blog.sina.com.cn/s/blog_1647c7e76010312wj.html)